<svg t="1763742331539" class="icon" viewBox="0 0 1024 1024" version="1.1" xmlns="http://www.w3.org/2000/svg" p-id="13053" width="200" height="200"><path d="M512 157.538462a354.461538 354.461538 0 1 1 0 708.923076 354.461538 354.461538 0 0 1 0-708.923076z m0 39.384615a315.076923 315.076923 0 1 0 0 630.153846 315.076923 315.076923 0 0 0 0-630.153846z m0 78.769231a118.153846 118.153846 0 0 1 53.720615 223.428923A216.694154 216.694154 0 0 1 728.615385 708.923077a19.692308 19.692308 0 1 1-39.384616 0 177.427692 177.427692 0 0 0-177.545846-177.230769A177.427692 177.427692 0 0 0 334.769231 695.059692a19.692308 19.692308 0 1 1-39.305846-3.032615 216.772923 216.772923 0 0 1 162.73723-193.063385A118.153846 118.153846 0 0 1 512 275.692308z m0 39.384615a78.769231 78.769231 0 1 0 0 157.538462 78.769231 78.769231 0 0 0 0-157.538462z" fill="#333333" p-id="13054"></path></svg>
